<svg xmlns="http://www.w3.org/2000/svg" width="640" height="200" viewBox="0 0 640 200" role="img" aria-labelledby="t d">
  <title id="t">SellerIQ</title><desc id="d">Minimal data warehouse illustration.</desc>
  <rect x="1" y="1" width="638" height="198" rx="22" fill="#161617" stroke="#343436" stroke-width="2"/>
  <g font-family="-apple-system, BlinkMacSystemFont, Segoe UI, sans-serif"><text x="34" y="57" fill="#df8a6d" font-size="13" font-weight="600" letter-spacing="2.4">MARKETPLACE DATA</text><text x="34" y="104" fill="#f5f5f7" font-size="31" font-weight="650">SellerIQ</text><text x="34" y="137" fill="#a1a1a6" font-size="15">S3 + PostgreSQL</text></g>
  <g fill="none" stroke="#d1d1d6" stroke-width="2.5" stroke-linecap="round" stroke-linejoin="round"><ellipse cx="453" cy="76" rx="34" ry="12"/><path d="M419 76v41c0 7 15 12 34 12s34-5 34-12V76M419 97c0 7 15 12 34 12s34-5 34-12"/><rect x="530" y="62" width="72" height="72" rx="10"/><path d="M546 116V94M566 116V80M586 116V101M496 98h22m-7-7 7 7-7 7"/></g><circle cx="400" cy="98" r="6" fill="#91aa97"/>
</svg>
