<svg xmlns="http://www.w3.org/2000/svg" width="640" height="270" viewBox="0 0 640 270" role="img" aria-labelledby="t d">
  <title id="t">DATA 607</title><desc id="d">A notebook with SQL, R, and database sketches.</desc>
  <rect width="640" height="270" rx="24" fill="#172126"/><rect x="1.5" y="1.5" width="637" height="267" rx="22.5" fill="none" stroke="#34464c" stroke-width="3"/>
  <g font-family="ui-monospace, SFMono-Regular, Menlo, Consolas, monospace"><text x="34" y="49" fill="#9eb29d" font-size="16" font-weight="700" letter-spacing="2">LEARNING IN PUBLIC</text><text x="34" y="86" fill="#f0e7d8" font-size="30" font-weight="700">DATA 607</text></g>
  <g fill="none" stroke="#e9dfcf" stroke-width="3" stroke-linecap="round" stroke-linejoin="round">
    <path d="M55 122h222v111H55zM79 122v111M96 145h154M96 169h112M96 193h137M96 217h89"/>
    <path d="M360 141c0-11 24-20 54-20s54 9 54 20v55c0 11-24 20-54 20s-54-9-54-20z"/><ellipse cx="414" cy="141" rx="54" ry="20"/><path d="M360 168c0 11 24 20 54 20s54-9 54-20"/>
    <path d="M510 128h78v78h-78z"/>
  </g>
  <g font-family="ui-monospace, SFMono-Regular, Menlo, Consolas, monospace" font-weight="700"><text x="109" y="159" fill="#d8b366" font-size="17">SELECT *</text><text x="532" y="179" fill="#df8b6c" font-size="43">R</text><text x="389" y="247" fill="#a9bbc0" font-size="13">POSTGRES</text></g>
</svg>
